Coordinates
version=1
nRows=49
nColumns=12
inDegrees=yes

Units are S.I. units (second, meters, Newtons, ...)
Angles are in degrees

endheader
time	SC_y	SC_z	SC_x	AC_y	AC_z	AC_x	GH_y	GH_z	GH_yy	EL_x	PS_y
       0.0              -34.26         -3.685          32.33          53.27          7.653         -16.49         -104.6          16.84         -59.09          62.63          136.5
   0.02683              -34.26         -3.685          32.33          53.27          7.652         -16.49         -104.6          16.85         -59.06          62.63          136.5
   0.05366              -34.26         -3.684          32.34          53.26           7.65         -16.49         -104.6          16.86         -59.04          62.63          136.5
   0.08049              -34.26         -3.683          32.35          53.26          7.648         -16.49         -104.6          16.87         -59.01          62.63          136.5
    0.1073              -34.26         -3.683          32.36          53.26          7.645         -16.48         -104.5          16.88         -58.98          62.63          136.5
    0.1341              -34.26         -3.682          32.36          53.25          7.643         -16.48         -104.5          16.89         -58.95          62.63          136.5
     0.161              -34.26         -3.681          32.37          53.25           7.64         -16.48         -104.5           16.9         -58.91          62.63          136.5
    0.1878              -34.26          -3.68          32.38          53.25          7.638         -16.47         -104.5          16.91         -58.88          62.63          136.4
    0.2146              -34.25         -3.679          32.39          53.24          7.635         -16.47         -104.4          16.92         -58.84          62.63          136.4
    0.2415              -34.25         -3.678           32.4          53.24          7.632         -16.47         -104.4          16.93          -58.8          62.63          136.4
    0.2683              -34.25         -3.677          32.42          53.23          7.628         -16.46         -104.4          16.95         -58.75          62.63          136.4
    0.2951              -34.25         -3.676          32.43          53.23          7.625         -16.46         -104.3          16.96         -58.71          62.63          136.4
    0.3219              -34.25         -3.674          32.44          53.22          7.621         -16.45         -104.3          16.98         -58.65          62.63          136.4
    0.3488              -34.24         -3.673          32.46          53.22          7.617         -16.45         -104.2          16.99          -58.6          62.63          136.4
    0.3756              -34.24         -3.671          32.47          53.21          7.612         -16.44         -104.2          17.01         -58.54          62.63          136.4
    0.4024              -34.24          -3.67          32.49           53.2          7.607         -16.43         -104.1          17.03         -58.47          62.63          136.4
    0.4293              -34.23         -3.668          32.51          53.19          7.602         -16.43         -104.1          17.05          -58.4          62.63          136.4
    0.4561              -34.23         -3.666          32.53          53.19          7.596         -16.42         -104.0          17.08         -58.32          62.63          136.4
    0.4829              -34.23         -3.664          32.55          53.18           7.59         -16.41         -103.9           17.1         -58.24          62.63          136.4
    0.5097              -34.22         -3.662          32.58          53.17          7.583          -16.4         -103.9          17.13         -58.15          62.63          136.3
    0.5366              -34.22         -3.659           32.6          53.15          7.575         -16.39         -103.8          17.16         -58.05          62.63          136.3
    0.5634              -34.21         -3.656          32.63          53.14          7.567         -16.38         -103.7           17.2         -57.93          62.63          136.3
    0.5902              -34.21         -3.653          32.66          53.13          7.558         -16.37         -103.6          17.23         -57.81          62.63          136.3
    0.6171               -34.2          -3.65           32.7          53.11          7.548         -16.36         -103.5          17.28         -57.67          62.63          136.3
    0.6439              -34.19         -3.646          32.74           53.1          7.536         -16.34         -103.3          17.32         -57.52          62.63          136.3
    0.6707              -34.19         -3.642          32.79          53.08          7.523         -16.33         -103.2          17.37         -57.35          62.63          136.2
    0.6975              -34.18         -3.637          32.84          53.06          7.509         -16.31         -103.0          17.43         -57.16          62.63          136.2
    0.7244              -34.17         -3.631          32.89          53.03          7.493         -16.29         -102.9           17.5         -56.95          62.63          136.2
    0.7512              -34.16         -3.625          32.96          53.01          7.475         -16.26         -102.7          17.57         -56.71          62.63          136.1
     0.778              -34.14         -3.618          33.03          52.98          7.454         -16.24         -102.4          17.65         -56.43          62.63          136.1
    0.8049              -34.13         -3.611          33.11          52.94          7.431          -16.2         -102.2          17.75         -56.12          62.63          136.1
    0.8317              -34.11         -3.602          33.21           52.9          7.404         -16.17         -101.9          17.86         -55.76          62.64          136.0
    0.8585               -34.1         -3.591          33.31          52.86          7.373         -16.13         -101.5          17.99         -55.35          62.64          135.9
    0.8853              -34.07         -3.579          33.44          52.81          7.337         -16.08         -101.1          18.13         -54.86          62.64          135.9
    0.9122              -34.05         -3.565          33.59          52.74          7.295         -16.03         -100.7           18.3          -54.3          62.64          135.8
     0.939              -34.02         -3.548          33.77          52.67          7.245         -15.96         -100.1          18.51         -53.63          62.64          135.7
    0.9658              -33.98         -3.528          33.97          52.58          7.186         -15.88         -99.49          18.75         -52.84          62.64          135.6
    0.9926              -33.94         -3.504          34.22          52.48          7.115         -15.79         -98.71          19.04          -51.9          62.64          135.4
     1.019              -33.89         -3.475          34.53          52.35          7.029         -15.68         -97.76          19.39         -50.75          62.65          135.3
     1.046              -33.82          -3.44           34.9           52.2          6.924         -15.54         -96.61          19.81         -49.35          62.65          135.1
     1.073              -33.75         -3.397          35.35          52.01          6.794         -15.37         -95.19          20.34         -47.62          62.65          134.8
       1.1              -33.65         -3.343          35.92          51.77          6.633         -15.16         -93.41           21.0         -45.47          62.66          134.5
     1.127              -33.53         -3.274          36.64          51.47           6.43          -14.9         -91.18          21.83         -42.76          62.67          134.1
     1.154              -33.37         -3.187          37.54           51.1          6.171         -14.56         -88.33          22.88         -39.31          62.67          133.6
      1.18              -33.17         -3.076          38.71          50.61           5.84         -14.13          -84.7          24.22         -34.89          62.68          133.0
     1.207              -32.91         -2.934           40.2          49.99          5.416         -13.57         -80.03          25.95         -29.23           62.7          132.2
     1.234              -32.59         -2.751          42.11          49.19          4.873         -12.87         -74.07          28.16         -21.99          62.71          131.2
     1.261              -32.18         -2.522          44.51          48.19          4.191         -11.98         -66.57          30.94         -12.89          62.73          129.9
     1.288              -31.67         -2.243          47.44          46.97           3.36         -10.89         -57.43          34.32         -1.797          62.76          128.3
